# xmcd CD database file
#
# Track frame offsets:
#	150
#	46727
#	60505
#	84305
#	112415
#	135410
#	161617
#	193187
#	201330
#	222495
#	251150
#	271777
#
# Disc length: 3801 seconds
#
# Revision: 0
# Processed by: cddbd v1.5.2PL0 Copyright (c) Steve Scherf et al.
# Submitted via: CDex 1.70beta2
#
DISCID=b10ed70c
DTITLE=Various Jazz - Jazz: Tenth Edition CD1
DYEAR=1900
DGENRE=Jazz
TTITLE0=Wyrgly
TTITLE1=Shaw 'Nuff
TTITLE2=Footprints
TTITLE3=E.T.A
TTITLE4=Out of Town (excerpt)
TTITLE5=Cagney
TTITLE6=Bop-Be
TTITLE7=You're Driving Me Crazy (What Did I Do?)
TTITLE8=As Long As I Live
TTITLE9=Top Secret
TTITLE10=Donna Lee
TTITLE11=Eclipse
EXTD=
EXTT0=
EXTT1=
EXTT2=
EXTT3=
EXTT4=
EXTT5=
EXTT6=
EXTT7=
EXTT8=
EXTT9=
EXTT10=
EXTT11=
PLAYORDER=
